<mxfile host="app.diagrams.net" agent="Mozilla/5.0 (Windows NT 10.0; Win64; x64) AppleWebKit/537.36 (KHTML, like Gecko) Chrome/140.0.0.0 Safari/537.36 Edg/140.0.0.0" version="28.2.3">
  <diagram name="第 1 页" id="N7nyryGJ8BszLFL-vH7w">
    <mxGraphModel dx="1205" dy="773" grid="1" gridSize="10" guides="1" tooltips="1" connect="1" arrows="1" fold="1" page="1" pageScale="1" pageWidth="827" pageHeight="1169" math="0" shadow="0">
      <root>
        <mxCell id="0" />
        <mxCell id="1" parent="0" />
        <mxCell id="vT9eZ11EA_ri_MrkcB-v-2" value="idle_list" style="text;html=1;align=center;verticalAlign=middle;whiteSpace=wrap;rounded=0;fontSize=20;" vertex="1" parent="1">
          <mxGeometry x="270" y="645" width="100" height="40" as="geometry" />
        </mxCell>
        <mxCell id="vT9eZ11EA_ri_MrkcB-v-3" value="buffer1" style="rounded=0;whiteSpace=wrap;html=1;fontSize=15;fillColor=#ffe6cc;strokeColor=#d79b00;" vertex="1" parent="1">
          <mxGeometry x="590" y="645" width="100" height="40" as="geometry" />
        </mxCell>
        <mxCell id="vT9eZ11EA_ri_MrkcB-v-4" value="" style="endArrow=classic;html=1;rounded=0;exitX=1;exitY=0.5;exitDx=0;exitDy=0;" edge="1" parent="1" source="vT9eZ11EA_ri_MrkcB-v-2">
          <mxGeometry width="50" height="50" relative="1" as="geometry">
            <mxPoint x="500" y="525" as="sourcePoint" />
            <mxPoint x="430" y="665" as="targetPoint" />
          </mxGeometry>
        </mxCell>
        <mxCell id="vT9eZ11EA_ri_MrkcB-v-5" value="buffer2" style="rounded=0;whiteSpace=wrap;html=1;fontSize=15;fillColor=#d5e8d4;strokeColor=#82b366;" vertex="1" parent="1">
          <mxGeometry x="750" y="645" width="100" height="40" as="geometry" />
        </mxCell>
        <mxCell id="vT9eZ11EA_ri_MrkcB-v-6" value="" style="endArrow=classic;html=1;rounded=0;exitX=1;exitY=0.5;exitDx=0;exitDy=0;" edge="1" parent="1">
          <mxGeometry width="50" height="50" relative="1" as="geometry">
            <mxPoint x="690" y="664.58" as="sourcePoint" />
            <mxPoint x="750" y="664.58" as="targetPoint" />
          </mxGeometry>
        </mxCell>
        <mxCell id="vT9eZ11EA_ri_MrkcB-v-7" value="buffer3" style="rounded=0;whiteSpace=wrap;html=1;fontSize=15;fillColor=#dae8fc;strokeColor=#6c8ebf;" vertex="1" parent="1">
          <mxGeometry x="910" y="645" width="100" height="40" as="geometry" />
        </mxCell>
        <mxCell id="vT9eZ11EA_ri_MrkcB-v-8" value="" style="endArrow=classic;html=1;rounded=0;exitX=1;exitY=0.5;exitDx=0;exitDy=0;" edge="1" parent="1">
          <mxGeometry width="50" height="50" relative="1" as="geometry">
            <mxPoint x="850" y="664.58" as="sourcePoint" />
            <mxPoint x="910" y="664.58" as="targetPoint" />
          </mxGeometry>
        </mxCell>
        <mxCell id="vT9eZ11EA_ri_MrkcB-v-9" value="list" style="rounded=0;whiteSpace=wrap;html=1;fontSize=15;" vertex="1" parent="1">
          <mxGeometry x="460" y="294" width="100" height="40" as="geometry" />
        </mxCell>
        <mxCell id="vT9eZ11EA_ri_MrkcB-v-10" value="list" style="rounded=0;whiteSpace=wrap;html=1;fontSize=15;" vertex="1" parent="1">
          <mxGeometry x="560" y="294" width="100" height="40" as="geometry" />
        </mxCell>
        <mxCell id="vT9eZ11EA_ri_MrkcB-v-11" value="list" style="rounded=0;whiteSpace=wrap;html=1;fontSize=15;" vertex="1" parent="1">
          <mxGeometry x="660" y="294" width="100" height="40" as="geometry" />
        </mxCell>
        <mxCell id="vT9eZ11EA_ri_MrkcB-v-12" value="..." style="rounded=0;whiteSpace=wrap;html=1;fontSize=15;" vertex="1" parent="1">
          <mxGeometry x="760" y="294" width="100" height="40" as="geometry" />
        </mxCell>
        <mxCell id="vT9eZ11EA_ri_MrkcB-v-13" value="buffer1" style="rounded=0;whiteSpace=wrap;html=1;fontSize=15;fillColor=#ffe6cc;strokeColor=#d79b00;" vertex="1" parent="1">
          <mxGeometry x="460" y="394" width="100" height="40" as="geometry" />
        </mxCell>
        <mxCell id="vT9eZ11EA_ri_MrkcB-v-14" value="buffer2" style="rounded=0;whiteSpace=wrap;html=1;fontSize=15;fillColor=#d5e8d4;strokeColor=#82b366;" vertex="1" parent="1">
          <mxGeometry x="660" y="394" width="100" height="40" as="geometry" />
        </mxCell>
        <mxCell id="vT9eZ11EA_ri_MrkcB-v-15" value="buffer3" style="rounded=0;whiteSpace=wrap;html=1;fontSize=15;fillColor=#dae8fc;strokeColor=#6c8ebf;" vertex="1" parent="1">
          <mxGeometry x="660" y="494" width="100" height="40" as="geometry" />
        </mxCell>
        <mxCell id="vT9eZ11EA_ri_MrkcB-v-16" value="" style="endArrow=classic;html=1;rounded=0;exitX=0.5;exitY=1;exitDx=0;exitDy=0;entryX=0.5;entryY=0;entryDx=0;entryDy=0;" edge="1" parent="1" source="vT9eZ11EA_ri_MrkcB-v-9" target="vT9eZ11EA_ri_MrkcB-v-13">
          <mxGeometry width="50" height="50" relative="1" as="geometry">
            <mxPoint x="630" y="424" as="sourcePoint" />
            <mxPoint x="680" y="374" as="targetPoint" />
          </mxGeometry>
        </mxCell>
        <mxCell id="vT9eZ11EA_ri_MrkcB-v-17" value="" style="endArrow=classic;html=1;rounded=0;exitX=0.5;exitY=1;exitDx=0;exitDy=0;entryX=0.5;entryY=0;entryDx=0;entryDy=0;" edge="1" parent="1" source="vT9eZ11EA_ri_MrkcB-v-11" target="vT9eZ11EA_ri_MrkcB-v-14">
          <mxGeometry width="50" height="50" relative="1" as="geometry">
            <mxPoint x="630" y="424" as="sourcePoint" />
            <mxPoint x="680" y="374" as="targetPoint" />
          </mxGeometry>
        </mxCell>
        <mxCell id="vT9eZ11EA_ri_MrkcB-v-18" value="" style="endArrow=classic;html=1;rounded=0;exitX=0.5;exitY=1;exitDx=0;exitDy=0;entryX=0.5;entryY=0;entryDx=0;entryDy=0;" edge="1" parent="1">
          <mxGeometry width="50" height="50" relative="1" as="geometry">
            <mxPoint x="709.58" y="434" as="sourcePoint" />
            <mxPoint x="709.58" y="494" as="targetPoint" />
          </mxGeometry>
        </mxCell>
        <mxCell id="vT9eZ11EA_ri_MrkcB-v-19" value="buffer4" style="rounded=0;whiteSpace=wrap;html=1;fontSize=15;fillColor=#f8cecc;strokeColor=#b85450;" vertex="1" parent="1">
          <mxGeometry x="560" y="444" width="100" height="40" as="geometry" />
        </mxCell>
        <mxCell id="vT9eZ11EA_ri_MrkcB-v-20" value="" style="endArrow=classic;html=1;rounded=0;exitX=0.5;exitY=1;exitDx=0;exitDy=0;entryX=0.5;entryY=0;entryDx=0;entryDy=0;" edge="1" parent="1" target="vT9eZ11EA_ri_MrkcB-v-19">
          <mxGeometry width="50" height="50" relative="1" as="geometry">
            <mxPoint x="609.58" y="334" as="sourcePoint" />
            <mxPoint x="609.58" y="394" as="targetPoint" />
          </mxGeometry>
        </mxCell>
        <mxCell id="vT9eZ11EA_ri_MrkcB-v-21" value="" style="endArrow=none;html=1;rounded=0;dashed=1;dashPattern=8 8;" edge="1" parent="1">
          <mxGeometry width="50" height="50" relative="1" as="geometry">
            <mxPoint x="380" y="584" as="sourcePoint" />
            <mxPoint x="940" y="584" as="targetPoint" />
          </mxGeometry>
        </mxCell>
        <mxCell id="vT9eZ11EA_ri_MrkcB-v-22" value="" style="endArrow=none;html=1;rounded=0;dashed=1;dashPattern=8 8;" edge="1" parent="1">
          <mxGeometry width="50" height="50" relative="1" as="geometry">
            <mxPoint x="380" y="224" as="sourcePoint" />
            <mxPoint x="940" y="224" as="targetPoint" />
          </mxGeometry>
        </mxCell>
        <mxCell id="vT9eZ11EA_ri_MrkcB-v-23" value="" style="endArrow=none;html=1;rounded=0;dashed=1;dashPattern=8 8;" edge="1" parent="1">
          <mxGeometry width="50" height="50" relative="1" as="geometry">
            <mxPoint x="380" y="224" as="sourcePoint" />
            <mxPoint x="380" y="584" as="targetPoint" />
          </mxGeometry>
        </mxCell>
        <mxCell id="vT9eZ11EA_ri_MrkcB-v-24" value="" style="endArrow=none;html=1;rounded=0;dashed=1;dashPattern=8 8;" edge="1" parent="1">
          <mxGeometry width="50" height="50" relative="1" as="geometry">
            <mxPoint x="940" y="224" as="sourcePoint" />
            <mxPoint x="940" y="584" as="targetPoint" />
          </mxGeometry>
        </mxCell>
        <mxCell id="vT9eZ11EA_ri_MrkcB-v-25" value="哈希表" style="text;html=1;align=center;verticalAlign=middle;whiteSpace=wrap;rounded=0;fontSize=20;" vertex="1" parent="1">
          <mxGeometry x="380" y="224" width="100" height="30" as="geometry" />
        </mxCell>
        <mxCell id="vT9eZ11EA_ri_MrkcB-v-26" value="block1" style="rounded=0;whiteSpace=wrap;html=1;fontSize=15;fillColor=#ffe6cc;strokeColor=#d79b00;" vertex="1" parent="1">
          <mxGeometry x="460" y="780" width="100" height="40" as="geometry" />
        </mxCell>
        <mxCell id="vT9eZ11EA_ri_MrkcB-v-27" value="block2" style="rounded=0;whiteSpace=wrap;html=1;fontSize=15;fillColor=#d5e8d4;strokeColor=#82b366;" vertex="1" parent="1">
          <mxGeometry x="560" y="780" width="100" height="40" as="geometry" />
        </mxCell>
        <mxCell id="vT9eZ11EA_ri_MrkcB-v-28" value="block3" style="rounded=0;whiteSpace=wrap;html=1;fontSize=15;fillColor=#dae8fc;strokeColor=#6c8ebf;" vertex="1" parent="1">
          <mxGeometry x="650" y="780" width="100" height="40" as="geometry" />
        </mxCell>
        <mxCell id="vT9eZ11EA_ri_MrkcB-v-29" value="block4" style="rounded=0;whiteSpace=wrap;html=1;fontSize=15;fillColor=#f8cecc;strokeColor=#b85450;" vertex="1" parent="1">
          <mxGeometry x="750" y="780" width="100" height="40" as="geometry" />
        </mxCell>
        <mxCell id="vT9eZ11EA_ri_MrkcB-v-30" value="block4" style="rounded=0;whiteSpace=wrap;html=1;fontSize=15;fillColor=#f5f5f5;strokeColor=#666666;fontColor=#333333;" vertex="1" parent="1">
          <mxGeometry x="850" y="780" width="100" height="40" as="geometry" />
        </mxCell>
        <mxCell id="vT9eZ11EA_ri_MrkcB-v-31" value="Disk:" style="text;html=1;align=center;verticalAlign=middle;whiteSpace=wrap;rounded=0;fontSize=20;" vertex="1" parent="1">
          <mxGeometry x="360" y="780" width="100" height="40" as="geometry" />
        </mxCell>
        <mxCell id="vT9eZ11EA_ri_MrkcB-v-32" value="buffer4" style="rounded=0;whiteSpace=wrap;html=1;fontSize=15;fillColor=#f8cecc;strokeColor=#b85450;" vertex="1" parent="1">
          <mxGeometry x="430" y="645" width="100" height="40" as="geometry" />
        </mxCell>
        <mxCell id="vT9eZ11EA_ri_MrkcB-v-33" value="" style="endArrow=classic;html=1;rounded=0;exitX=1;exitY=0.5;exitDx=0;exitDy=0;" edge="1" parent="1">
          <mxGeometry width="50" height="50" relative="1" as="geometry">
            <mxPoint x="530" y="664.5" as="sourcePoint" />
            <mxPoint x="590" y="664.5" as="targetPoint" />
          </mxGeometry>
        </mxCell>
      </root>
    </mxGraphModel>
  </diagram>
</mxfile>
